<svg xmlns="http://www.w3.org/2000/svg" viewBox="0 0 24 24" fill="#7B61FF" width="24" height="24">
  <path d="M5.5 2C4.12 2 3 3.12 3 4.5V19.5C3 20.88 4.12 22 5.5 22H9.5C10.88 22 12 20.88 12 19.5V4.5C12 3.12 10.88 2 9.5 2H5.5ZM7 4H8.5C9.33 4 10 4.67 10 5.5V18.5C10 19.33 9.33 20 8.5 20H5.5C4.67 20 4 19.33 4 18.5V5.5C4 4.67 4.67 4 5.5 4H7ZM13 2C11.34 2 10 3.34 10 5V9H14V5C14 3.34 12.66 2 11 2ZM15 2H16.5C17.88 2 19 3.12 19 4.5V19.5C19 20.88 17.88 22 16.5 22H14V20H16.5C17.33 20 18 19.33 18 18.5V5.5C18 4.67 17.33 4 16.5 4H15V2Z"/>
</svg>